<svg xmlns="http://www.w3.org/2000/svg" width="234.067" height="228.324" viewBox="0 0 234.067 228.324">
  <g id="Group_2109" data-name="Group 2109" transform="translate(-523 -124)">
    <g id="blob-shape_1_" data-name="blob-shape (1)" transform="translate(606.393 306.091)" opacity="0.097">
      <path id="Path_68533" data-name="Path 68533" d="M82.687-148.148c35.169,25.7,69.98,61.223,67.9,94.67-2.153,33.375-41.2,64.668-76.368,68.114-35.169,3.517-66.463-20.886-89.646-29s-38.256,0-49.739-3.445S-84.546-36.324-83.254-50.1s11.7-26.341,23.183-52.036c11.484-25.767,24.044-64.668,48.017-76.152C11.99-189.777,47.518-173.915,82.687-148.148Z" transform="translate(0)" fill="#191717"/>
    </g>
    <g id="Empty_Cart_2_Color" data-name="Empty Cart 2_Color" transform="translate(518.043 106.81)">
      <path id="Path_68159" data-name="Path 68159" d="M101.957,245.486c-.739-.219-1.515-.26-2.241-.543a9.162,9.162,0,0,1-6.279-7.822c-.511-4.344,1.355-7.548,5.12-9.688l.233-.137c.009,0,0-.032,0-.068-.283-.023-.561-.055-.844-.064-1.57-.055-2.514-1.045-3.372-2.2a22.331,22.331,0,0,1-2.665-5.654c-2.5-6.708-4.855-13.467-6.74-20.376a8.024,8.024,0,0,1-.566-2.948c0-.05-.073-.119-.123-.164a32.436,32.436,0,0,1-6.056-8.593c-2.679-5-5.075-10.144-7.443-15.3-.224-.488-.84-.771-.821-1.337a5.212,5.212,0,0,0-.739-2.09c-.146-.374-.465-.657-.621-1.045-2.656-6.831-5.768-13.467-8.584-20.23-2.368-5.681-4.737-11.367-7.242-16.985-1.561-3.5-3.272-6.923-4.842-10.418-.511-1.132-1.077-2.241-1.533-3.4a1.738,1.738,0,0,0-1.51-1.136c-2.008-.283-4.025-.534-6.037-.785-2.323-.292-4.641-.589-6.964-.858-1.529-.178-3.044-.47-4.568-.643a2.8,2.8,0,0,1-2.551-3.021,5.684,5.684,0,0,1,1.155-3.432,2.7,2.7,0,0,1,2.524-.967c1.223.16,2.46.237,3.683.383,1.529.183,3.057.388,4.582.6,1.437.2,2.87.4,4.3.607,1.844.26,3.687.52,5.513.9a2.688,2.688,0,0,1,1.638,1.264,42.523,42.523,0,0,1,3.071,5.718c1.287,2.66,2.514,5.353,3.765,8.032.082.173.173.338.31.607a2.648,2.648,0,0,0-.269-1.374,37.648,37.648,0,0,1-4.3-13.06,16.03,16.03,0,0,1,.055-5.827,8.937,8.937,0,0,1,5.084-6c.2-.1.4-.183.6-.269a4.62,4.62,0,0,1-.58-2.122c-.233-1.2-.538-2.368-.885-3.537a1.18,1.18,0,0,0-.507-.666A26.166,26.166,0,0,1,48.921,85.3a2.523,2.523,0,0,1-.616-1.2c-.037-.274-.242-.214-.406-.256a8.348,8.348,0,0,1-6.713-8.2,7.435,7.435,0,0,1,.885-3.674.528.528,0,0,0-.032-.621,15.525,15.525,0,0,1-1.369-2.482,33.616,33.616,0,0,1-1.921-6.959,38.974,38.974,0,0,1-.315-6.877,25.323,25.323,0,0,1,5.9-15.625,6.888,6.888,0,0,1,2.327-1.853,5.778,5.778,0,0,0-2.505-.287c-.141.027-.287.041-.434.055a.459.459,0,0,1-.475-.205.494.494,0,0,1,.037-.566,1.35,1.35,0,0,1,1.009-.575,12.015,12.015,0,0,1,1.625-.009,5.019,5.019,0,0,1,.735-4.029,6.006,6.006,0,0,1,3.039-2.747h.657c.566.356.365.785.155,1.259a11,11,0,0,0-1.273,4.363v.434c.643-.429,1.218-.835,1.816-1.2a22.88,22.88,0,0,1,13.959-3.619,27.65,27.65,0,0,1,9.095,2.5,57.986,57.986,0,0,1,15.233,9.875,15.1,15.1,0,0,1,3.231,3.833c.205.365.214.589-.183.767-.1.046-.178.123-.278.173-.662.338-.653.406-.47,1.086.972,3.559,1.958,7.119,1.766,10.875a21.213,21.213,0,0,0,.47,3.231C94,64,94.8,64.972,95.194,66.117a12.1,12.1,0,0,1,.575,6.124A5.478,5.478,0,0,1,94.5,75.034a.581.581,0,0,0-.155.493,18.64,18.64,0,0,1-2.108,9.515,32.594,32.594,0,0,1-3.7,6.161,13.945,13.945,0,0,1-1.634,1.72c.278.023.488.037.689.064a14.242,14.242,0,0,1,11.491,8.228,5.362,5.362,0,0,1,.246.721c-.178.465-.406.557-.735.228a5.721,5.721,0,0,1-.739-.945A16.011,16.011,0,0,0,93.61,96.7a11.714,11.714,0,0,0-6.334-2.4,3.214,3.214,0,0,0-2.181.534,16.786,16.786,0,0,1-3.14,1.862,2.116,2.116,0,0,1-1.232.319,61.36,61.36,0,0,1,15.525,11.418,6.742,6.742,0,0,1,.493-1.145c.84-1.237,1.707-2.446,2.583-3.66a3.6,3.6,0,0,0,.589-1.036c.922-1.031,1.844-2.072,2.77-3.1a7.045,7.045,0,0,1,1.173-1.068,2.1,2.1,0,0,1,2.5-.078,18.922,18.922,0,0,1,3.249,2.391,6.221,6.221,0,0,1,1.173,1.565,1.384,1.384,0,0,1,.05,1.3.813.813,0,0,0,.392,1.04,14.367,14.367,0,0,1,1.469,1.209,1.547,1.547,0,0,1,.584,1.159,8.818,8.818,0,0,0,.977,3.272,6.315,6.315,0,0,1,.3.753c.192.552.1.949-.47,1.182-.1.041-.214.1-.192.233a8.291,8.291,0,0,1-.214,1.606,1.144,1.144,0,0,1-.548,1.013.247.247,0,0,0-.114.361.527.527,0,0,1,.068.146c.146,1.451,1.182,2.378,2.026,3.413a17.953,17.953,0,0,1,3.628,7.311,3.75,3.75,0,0,1,.1,1.625,1.213,1.213,0,0,1-.844,1.036c-.351.1-.484.283-.155.6.538.516,1.059,1.054,1.593,1.583a3.509,3.509,0,0,0,1.853.936c1.447.306,1.871.972,1.634,2.327-.055.3.064.3.26.315.4.023.8.05,1.2.059,1.141.023,1.383.315,1.118,1.415,3.737-1.191,7.329-2.729,10.961-4.153a32.128,32.128,0,0,0,3.286-1.921c5.891-3.153,11.272-7.137,17.049-10.478.849-.493,1.7-.99,2.537-1.492a6.286,6.286,0,0,1,3.1-1.072,26.189,26.189,0,0,1,4.97.11,13.227,13.227,0,0,1,4.44,2.022c2.186,1.3,4.071,3.007,6.124,4.49,1.255.908,2.551,1.757,3.724,2.779a3.477,3.477,0,0,0,1.488.47,57.762,57.762,0,0,0,8.6,1.4c.507.059.716-.365,1.123-.424.561-.082.424-.561.47-.926a.567.567,0,0,1,.146-.347,29.255,29.255,0,0,0,3.34-4.641c1.994-2.893,3.847-5.882,5.882-8.743,1.606-2.259,4.96-3.564,7.6-.78a8.7,8.7,0,0,1,2.318,5.065,3.638,3.638,0,0,0,.146,1.182c.2.37.721.151,1.086.283a6.528,6.528,0,0,1,4.363,4.541,11.473,11.473,0,0,1,.671,4.157,17.259,17.259,0,0,1-1.406,5.284c-1.615,3.628-3.623,7.041-5.549,10.5-1.342,2.414-2.72,4.81-4.08,7.215a4.394,4.394,0,0,1-1.1,1.488c-2.3,1.675-4.7,3.08-7.7,2.962a10.345,10.345,0,0,1-7.639-3.678,13.458,13.458,0,0,1-1.406-1.949,8.644,8.644,0,0,1-.89-2.213,1.978,1.978,0,0,0-.616,1.068,11.2,11.2,0,0,1-.9,2.3,12.954,12.954,0,0,1-.967,2.072,1.622,1.622,0,0,1-1.406.881,15.043,15.043,0,0,0-1.844.447,8.2,8.2,0,0,1-1.8.068c-.406-.018-.812-.114-.945-.593-.05-.192-.219-.187-.342-.224A33.218,33.218,0,0,1,177,152.165c-.269-.1-.319-.119-.4.21-1.2,5.266-2.441,10.528-3.664,15.789-.826,3.564-1.675,7.123-2.451,10.7-.219,1-.5,1.99-.712,3-.876,4.08-1.789,8.15-2.706,12.221a2.565,2.565,0,0,1-2.414,1.926c-2.5.068-5,.16-7.493.219q-5.524.13-11.043.219-11.76.178-23.515.329c-6.631.082-13.266.082-19.9.237-4.381.1-8.762.059-13.138.1-.073,0-.146.009-.269.018.4,1.04.821,2.049,1.182,3.08q3.334,9.583,5.946,19.385c.137.52.21,1.063.37,1.574a2.851,2.851,0,0,0,2.738,2q9.912-.11,19.819-.233c3.888-.055,7.771-.141,11.659-.219,7.06-.137,14.119-.3,21.183-.411,5.567-.087,11.135-.164,16.7-.114,1.917.018,3.833.068,5.745.1a1.32,1.32,0,0,1,1.2,1.2,2.952,2.952,0,0,1-.675,2.336,1.785,1.785,0,0,1-1.378.639c-2.058.082-4.116.2-6.179.228a2.388,2.388,0,0,0-.6.1,9.8,9.8,0,0,1,3.833,2.277,9.273,9.273,0,0,1,2.907,7.73,9.458,9.458,0,0,1-7.657,8.5c-.283.05-.611-.027-.862.2h-1.862c-.055-.091-.146-.1-.237-.1a8.751,8.751,0,0,1-5.12-2.259,9.543,9.543,0,0,1-.11-14.265,10.094,10.094,0,0,1,3.368-1.985c-18.121.4-36.078.4-54.058.57.046.046.059.073.082.087,3.756,2.227,5.513,5.508,4.9,9.843a9.137,9.137,0,0,1-6.238,7.566c-.7.274-1.46.306-2.168.548C103.2,245.486,102.578,245.486,101.957,245.486ZM86.45,131.1c-.342.434-.689.867-1.123,1.415.338-.128.616.146.744-.2a6.568,6.568,0,0,0,.447-1.155c.1-.046.128-.114.064-.21C86.542,131,86.5,131.045,86.45,131.1ZM92.2,55.8a.291.291,0,0,0,.046.082c.018.023-.037.119.037.059.037-.027-.009-.123-.1-.128a1.661,1.661,0,0,0-.023-.7c-.356-2.076-.922-4.1-1.469-6.133-.037-.141.068-.415-.242-.356-.333.059-1.164.712-1.118.853a.484.484,0,0,0,.05.1A41.068,41.068,0,0,1,92.2,55.8Zm8.465,47.984c1.319-.9,2.542-1.949,3.879-2.829a.882.882,0,0,1,1.155-.037c1.173.762,2.391,1.456,3.632,2.1.123.064.256.2.383.041.087-.11,0-.233-.059-.351a3.963,3.963,0,0,0-.826-1.077,19.825,19.825,0,0,0-2.98-2.209,1.018,1.018,0,0,0-1.387.064,41.479,41.479,0,0,0-3.893,4.212c-.041.073-.087.151-.128.224C100.565,103.975,100.6,103.861,100.661,103.783Zm103.147,48.824a4.249,4.249,0,0,0,1.392-.7,1.988,1.988,0,0,0,.954-.767c2.806-5.189,5.832-10.254,8.584-15.475A32.928,32.928,0,0,0,218,127.541c.214-.972.493-1.93-.3-2.806-.224-.246-.242-.653-.57-.945-.046.31-.068.538-.114.767a40.791,40.791,0,0,1-2.095,7.041,135.142,135.142,0,0,1-8.634,17.026c-.776,1.355-1.643,2.66-2.469,3.988l-.023.032ZM75.886,107.443a39.83,39.83,0,0,0,2.46,6.005,1.326,1.326,0,0,1,1.086-.374,28.043,28.043,0,0,1,5.622.707,55.337,55.337,0,0,1,8.629,2.624c.082.032.2.114.246.082.543-.333,1.031,0,1.515.151.347.1.392.023.4-.292q.089-3.039.214-6.069a.759.759,0,0,0-.306-.653c-1.054-.958-2.081-1.939-3.149-2.884a54.159,54.159,0,0,0-5.992-4.659,44.971,44.971,0,0,0-7-4.212,3.433,3.433,0,0,0,.228,1.314,9.9,9.9,0,0,0,.671,2c.059.173.146.351-.009.511-.183.183-.379.059-.561,0a1.5,1.5,0,0,1-.762-.748,7.3,7.3,0,0,1-.817-3.687c0-.411-.155-.479-.5-.484a34.157,34.157,0,0,1-5.056-.429A45.323,45.323,0,0,1,59.093,91.9c-.379-.2-.84-.242-1.141-.589a18.865,18.865,0,0,1-3.29-5.248.942.942,0,0,1-.078-.37.409.409,0,0,1,.183-.379c.2-.1.237.114.315.21a22.488,22.488,0,0,1,2.35,3.345c.315.593.73,1.132,1.1,1.693.073.11.119.306.31.233.374-.137.675.073.986.2,1.086.456,2.154.967,3.249,1.4A62.149,62.149,0,0,0,78.3,96c.342.041.721.251,1.018.087a3.356,3.356,0,0,1,1.483-.246,1.464,1.464,0,0,0,1.136-.443,4.775,4.775,0,0,1,2.149-1.588A5.846,5.846,0,0,0,85.743,92.6a29.5,29.5,0,0,0,6.11-9.925A15.264,15.264,0,0,0,93.086,76.9c-.023-1.752-.269-3.491-.383-5.234a21.154,21.154,0,0,1,.037-4.093,8.173,8.173,0,0,0,.37-1.857,37.881,37.881,0,0,0-.461-3.792A38.643,38.643,0,0,0,88.4,50.2c-.16-.283-.283-.333-.589-.205a41.907,41.907,0,0,1-10.692,2.884,36.245,36.245,0,0,1-11.431-.037c-3.026-.552-5.878-1.5-8.013-3.943a3.342,3.342,0,0,0-.434.99,30.38,30.38,0,0,0-.7,9.82,24.319,24.319,0,0,1,.265,2.989,10.119,10.119,0,0,0,.009,2.291,3.651,3.651,0,0,1,0,.548c-1.378-1.661-2.085-3.664-3.181-5.6.055,1.1.114,2.072.151,3.035a80.381,80.381,0,0,1,.064,9.081.719.719,0,0,0,.078.52c.128.183.251.429,0,.575a.667.667,0,0,1-.808-.027,14.175,14.175,0,0,0-1.684-1.287c-.073-.068-.2-.16-.265-.137-.456.151-.461.169-.771-.128-.516-.488-1.013-1-1.533-1.483a1.657,1.657,0,0,0-1.291-.475A4.905,4.905,0,0,0,44.8,70.74c-3.112,2.5-2.984,7.8.283,10.336a8.344,8.344,0,0,0,5.075,2.044,2.337,2.337,0,0,0,1.839-.6c.388-.383.744-.8,1.1-1.209.114-.132.21-.283.47-.233a4.911,4.911,0,0,1-.995,1.926c-.141.214-.205.3-.064.525.488.771.981,1.533,1.415,2.332a25.127,25.127,0,0,1,3.34,11.107,10.6,10.6,0,0,1,5.011-.237,18.426,18.426,0,0,1,7.959,3.765,22.436,22.436,0,0,0,3.267,2.409,13.5,13.5,0,0,0,7.562,1.4,5.089,5.089,0,0,0,2.026-.593c.557-.31.58-.411.21-.9-.164-.219-.347-.42-.52-.634a36.43,36.43,0,0,1-2.4-2.765c.023-.3.246-.269.443-.251a2.1,2.1,0,0,1,.862.315,6.87,6.87,0,0,1,1.7,1.524,8.982,8.982,0,0,0,1.091,1.214c.671.52.8.995.306,1.7a3.506,3.506,0,0,1-1.789,1.287,11.734,11.734,0,0,1-6.037.269c-.8-.141-1.57-.411-2.5-.643A14.7,14.7,0,0,1,75.886,107.443Zm17.254,40.1c-.023-.032-.05-.064-.073-.091a3.562,3.562,0,0,1,.685-.771c2.195-2.218,4.5-4.322,6.845-6.38.242-.21.479-.42.762-.671-1.077-.205-2.067-.388-3.053-.58-1.392-.269-1.506-.233-2.263,1.022a8.113,8.113,0,0,1-1.93,2.355c-.926.712-1.716,1.574-2.606,2.327-.2.164-.388.333-.593.484a17.005,17.005,0,0,1-4.9,2.569c-.146.046-.475-.023-.306.388.657,1.615,1.278,3.254,1.908,4.883a.462.462,0,0,0,.443.315q3.005.315,6.01.671c2.017.237,4.034.5,6.051.744q3.19.383,6.38.753a2.581,2.581,0,0,0,1.054.027c.342-.114.63-1.15.529-1.529-1.123-4.153-2.3-8.3-3.331-12.472-.278-1.132-.689-1.7-1.88-1.707a1.1,1.1,0,0,0-.812.242c-1.123.931-2.259,1.848-3.377,2.784C96.823,144.439,94.984,145.995,93.14,147.542ZM88.7,118.551a.82.82,0,0,1,.475.087,5.151,5.151,0,0,1,3.14,3.537c.187.653.256,1.323-.584,1.643-.055.023-.091.11-.123.173-.753,1.437-1.876,2.642-2.4,4.244a49.263,49.263,0,0,1-1.962,4.522,14.422,14.422,0,0,1,1.474.269.475.475,0,0,0,.557-.178,8.128,8.128,0,0,1,1.3-1.328,4.968,4.968,0,0,0,1.51-1.958,21.551,21.551,0,0,0,1.228-3.185,21.953,21.953,0,0,0,.63-2.925c.064-.324.2-.557.566-.538s.5.3.525.6a5.1,5.1,0,0,1-.027,1.419c-.018.1-.21.365.123.306.173-.032.5.192.507-.26.05-2.263.119-4.522.187-6.786.009-.233-.073-.278-.292-.329-.716-.155-1.456-.237-2.158-.406-2.04-.493-4.039-1.177-6.078-1.688a25.875,25.875,0,0,0-8.351-1.191,4.62,4.62,0,0,0-2.492.853,38.581,38.581,0,0,0-4.395,4.02,1.411,1.411,0,0,0-.342.785,47.97,47.97,0,0,1-.986,5.079,14.455,14.455,0,0,1-1.237,3.87c-.141.224.037.283.205.315.584.114,1.173.219,1.757.329a.713.713,0,0,0,.744-.3,32.144,32.144,0,0,0,2.2-3.053,3.826,3.826,0,0,0,.643-1.793,6.021,6.021,0,0,1,1.218-3.167c1.342-1.73,2.756-3.4,4.226-5.024a1.643,1.643,0,0,1,.653-.484.66.66,0,0,1,.858.269.587.587,0,0,1-.219.853,3.3,3.3,0,0,0-.671.639c-1.209,1.437-2.423,2.87-3.61,4.326a4.679,4.679,0,0,0-.995,2.09,59.713,59.713,0,0,0-.6,5.978c-.027.292.192.31.365.383a6.274,6.274,0,0,0,2.419.507c.251,0,.392,0,.461-.288.292-1.237.607-2.464.821-3.719a4,4,0,0,1,.429-1.675,16.485,16.485,0,0,1,1.479-1.894q1.561-1.725,3.1-3.468c.278-.315.52-.653.977-.716.178-.023.31-.329.525-.11s.128.484,0,.707c-.306.516-.584,1.045-.844,1.584-1.342,2.8-2.419,5.713-3.82,8.488a2.5,2.5,0,0,0-.219,1.328.5.5,0,0,0,.507.525,12.614,12.614,0,0,1,1.492.269.462.462,0,0,0,.561-.173c2.3-2.925,4.677-5.777,6.781-8.853a.668.668,0,0,0,.078-.748c-.411-.826-.808-1.661-1.241-2.478a2.624,2.624,0,0,0-.68-.776c-.16-.132-.415-.219-.37-.511Zm69.665,16.784a5.323,5.323,0,0,1,.977,1.533,39.351,39.351,0,0,0,3.6,6.1,9.058,9.058,0,0,0,3.208,2.911c.1.046.274.219.306.073.128-.529.374-.119.5-.059,1.675.831,3.331,1.7,5.006,2.519a8.617,8.617,0,0,0,2.765,1.086,2.2,2.2,0,0,1,1.789.977c.087.146.338.2.52.278a50.489,50.489,0,0,0,5.166,1.862c.447.132.894.493,1.351-.027.082-.091.31-.068.47-.073.31-.014.621.009.931-.014a.9.9,0,0,0,.867-.465c.479-1.237,1.2-2.355,1.679-3.6a80.226,80.226,0,0,0,2.569-8.141,78.607,78.607,0,0,1,4.075-10.254.88.88,0,0,0-.2-.986c-.192-.228-.511-.119-.753.027a2.514,2.514,0,0,1-1.2.31,30.85,30.85,0,0,1-6.731-.634c-2.286-.4-4.5-1.132-6.745-1.73a1.708,1.708,0,0,0-.831-.141,8.058,8.058,0,0,1,2.054,1.789,7.065,7.065,0,0,1-3.3-1.2c-2.054-1.241-4.1-2.5-6.151-3.742a26.148,26.148,0,0,0-3.724-1.93,1.848,1.848,0,0,0-1.666.059c-.771.4-1.565.748-2.368,1.077-10.062,4.148-20.166,8.182-30.269,12.225a51.991,51.991,0,0,1-5.627,2.031,1.191,1.191,0,0,1-.9-.046c-.3-.16-.351-.452-.333-.858a37.921,37.921,0,0,1-2.811,3.149c2.756.511,5.444,1.072,8.164,1.451.949.132,1.866.484,2.82.662,3,.557,5.992,1.141,8.985,1.716,2.747.525,5.494,1.04,8.242,1.57q3.1.6,6.2,1.2a3.424,3.424,0,0,0,1.1.178,1.844,1.844,0,0,1,1.077.2,4.273,4.273,0,0,0,1.8.575,16.145,16.145,0,0,1,3.646.538c.356.073.342-.123.429-.306s.183-.329-.11-.47a5.947,5.947,0,0,1-1.67-1.31,20.337,20.337,0,0,1-4.659-7.863A4.422,4.422,0,0,1,158.37,135.335ZM50.19,29.861c-.064-.018-.1-.046-.128-.037a1.507,1.507,0,0,0-.2.087,6.24,6.24,0,0,0-2.875,3.514,2.9,2.9,0,0,0,.032,2.816c-.2.68.443.748.767,1.036.11.1.4.009.406.26s-.214.315-.388.411a8.411,8.411,0,0,0-2.35,1.853,24.2,24.2,0,0,0-5.814,15.018,35.872,35.872,0,0,0,.648,9.026,18.659,18.659,0,0,0,2.263,6.539c.233.356.319.361.584.059a6.592,6.592,0,0,1,2.825-1.894,3.62,3.62,0,0,1,4.048.767c.808.808,1.885,1.173,2.775,2.022-.068-4.112-.169-8.086-.4-12.052-.082-1.383.037-2.77-.128-4.153-.046-.4.037-.844.575-.831.461.009.484.415.516.767a5.1,5.1,0,0,0,.123,1.191,40.1,40.1,0,0,0,1.921,4.326c0-.37.014-.6,0-.821a33.714,33.714,0,0,1,.228-7.908,7.971,7.971,0,0,1,1.319-3.82c.055-.068.119-.132.05-.237-.123-.205-.292-.493-.078-.639s.379.2.584.3a1.767,1.767,0,0,1,.26.2,23.138,23.138,0,0,0,4.112,2.665,22.253,22.253,0,0,0,8.794,1.625A45.66,45.66,0,0,0,84.63,49.849c2.423-.748,4.755-1.73,7.133-2.688a14.564,14.564,0,0,0-1.743-2A56.567,56.567,0,0,0,72.756,33.781a24.882,24.882,0,0,0-8.086-2.063,22.166,22.166,0,0,0-12.139,2.9c-.958.52-1.889,1.086-2.848,1.615-.538.3-.78.2-.9-.374a.322.322,0,0,0-.214-.26.5.5,0,0,1-.278-.443,5.94,5.94,0,0,1,.055-1.634A7.964,7.964,0,0,1,50.19,29.861Zm26.778,83.725c-.538-1.059-.931-2.117-1.374-3.153a27.208,27.208,0,0,0-1.3-3.29,19.488,19.488,0,0,0-10.081-8.419,9.508,9.508,0,0,0-6.361-.438c-4.1,1.264-5.973,4.627-5.75,8.661a32.5,32.5,0,0,0,1,6.179,55.445,55.445,0,0,0,3.331,8.8,12.247,12.247,0,0,0,1.378,2.022c.84,1.2,1.734,2.341,2.61,3.5a1.3,1.3,0,0,0,.853.511c1.78.324,3.555.653,5.335.967a.611.611,0,0,0,.374-.018,8.976,8.976,0,0,1,1.456-.456c.183-.064.31-.1.361-.333.543-2.428,1.086-4.855,1.4-7.324a4.4,4.4,0,0,1,1.465-2.893c1.424-1.25,2.816-2.546,4.221-3.815A1.731,1.731,0,0,1,76.968,113.586Zm122.359,40.121c.365,0,.73.027,1.1,0a2.647,2.647,0,0,0,2.373-1.419c2.5-4.358,4.947-8.743,7.251-13.211a62.275,62.275,0,0,0,6.183-16.31c.041-.2.11-.365-.046-.557a5.593,5.593,0,0,0-2.145-1.743,2.792,2.792,0,0,0-2.419-.237,16.419,16.419,0,0,0-1.962,1.177,49.953,49.953,0,0,0-5.148,4.153c-1,.908-2.072,1.73-3.076,2.633-1.04.936-2.469,1.022-3.564,1.812a.973.973,0,0,1-.849.091,4.266,4.266,0,0,1-.776-.242c-.406-.224-.584-.046-.735.306q-.712,1.677-1.442,3.354a.592.592,0,0,0,.059.557,15.244,15.244,0,0,1,.862,1.885,4.869,4.869,0,0,1-1.949,5.759,2.287,2.287,0,0,1-1.693.488c-.388-.059-.493.119-.575.438a18.914,18.914,0,0,1-.675,2.241,2.121,2.121,0,0,0,.041,1.834,15.718,15.718,0,0,0,1.529,2.884A9.106,9.106,0,0,0,199.326,153.707Zm-86.86-39.578c.059-.611.561-1.1.164-1.67-1.118-1.6-2.341-3.076-4.376-3.55-.461-.1-.913-.233-1.369-.351a3.228,3.228,0,0,1-1.127-.561c-.224-.16-.57.561-1,.675-.214.055-.438.119-.616-.073a.559.559,0,0,1-.059-.57,2.218,2.218,0,0,1,1.894-1.428c.365-.009.831-.064,1.009.274.265.5.7.538,1.127.616a7.732,7.732,0,0,1,4.458,2.752c.324.365.63.744.94,1.113a.639.639,0,0,0,.192-.835c-.5-1.319-1.155-2.578-1.538-3.938a.811.811,0,0,0-.365-.452,22.925,22.925,0,0,0-1.962-1.278c-1.351-.716-2.67-1.474-3.975-2.263-.9-.548-.872-.511-1.693.151a45.235,45.235,0,0,1-5.508,4.112c-.479.278-1.009.6-1.059,1.237-.1,1.269-.192,2.542-.233,3.82-.1,3.117-.151,6.234-.256,9.35a30.651,30.651,0,0,1-.3,4.034c-.11.657-.21.748-.89.744-.05,0-.128,0-.146.032-.424.593-1.182.9-1.451,1.611-.817,2.172-1.611,4.349-3.765,5.618.059.073.078.119.1.123q3.539.678,7.073,1.346a.506.506,0,0,0,.593-.256,73.039,73.039,0,0,0,4.869-9.186c.151-.347.324-.657-.137-.917a.338.338,0,0,1-.123-.484c.119-.2.319-.155.493-.1.265.073.543.1.789.192.306.11.4,0,.529-.233.224-.4.5-.762.726-1.155a10.1,10.1,0,0,0,1.291-5.969.592.592,0,0,1,.333-.68c.374-.146.8-.31,1.113.073a1.419,1.419,0,0,0,.675.42c.406.151.831.26,1.232.429a2.453,2.453,0,0,1,1.52,1.378,1.287,1.287,0,0,0,1.077.744,18.432,18.432,0,0,0-.977-3.514,2.735,2.735,0,0,0-2.04-1.761c-1-.256-2-.511-3-.794-.4-.114-.8-.443-1.164-.4-.4.046-.511.611-.78.926-.16.183-.351.374-.607.219a.469.469,0,0,1-.151-.634,3.357,3.357,0,0,1,.922-1.337,1.157,1.157,0,0,1,1.127-.256c1.333.429,2.706.689,4.043,1.077A4.212,4.212,0,0,1,112.466,114.129Zm19.979,31.113c.036.246.05.411.087.566.94,4.244,1.889,8.483,2.811,12.727.068.306.137.429.465.443.452.018.9.123,1.346.173,1.387.16,2.779.31,4.166.47s2.775.333,4.162.5c1.118.132,2.236.256,3.354.379a.627.627,0,0,0,.552-.146c2.236-2.095,4.541-4.116,6.708-6.284a.779.779,0,0,0,.242-.58c.014-1.186.027-2.373.055-3.555,0-.274-.082-.351-.365-.4-2.309-.411-4.614-.853-6.923-1.278-2.254-.415-4.513-.817-6.768-1.228q-3.491-.637-6.982-1.269C134.4,145.584,133.44,145.42,132.445,145.242ZM75.1,171.956c.507,1.04.972,2.017,1.456,2.98a141.4,141.4,0,0,0,6.772,12.586,20.773,20.773,0,0,0,4.075,5.02,2.565,2.565,0,0,0,1.7.739c3.687-.055,7.37-.1,11.057-.146a.73.73,0,0,0,.178-.055c-.475-1.2-.99-2.373-1.392-3.582a3.376,3.376,0,0,0-1.634-2c-4.08-2.364-6.8-6.147-9.82-9.611a23.354,23.354,0,0,1-2.948-4.573.513.513,0,0,0-.4-.329c-.4-.037-.794-.073-1.191-.119-1.406-.164-2.811-.338-4.217-.5C77.547,172.235,76.356,172.1,75.1,171.956Zm57.681,2.665a.567.567,0,0,0,.507-.164c.666-.57,1.337-1.127,2.012-1.688a.452.452,0,0,0,.192-.538c-.68-3.044-1.337-6.1-1.994-9.145a.316.316,0,0,0-.319-.292c-1.155-.132-2.3-.292-3.459-.424-2.022-.233-4.043-.447-6.065-.675-2.469-.283-4.938-.566-7.406-.885-.365-.046-.4.041-.415.361a56.669,56.669,0,0,1-.607,6.69,4.094,4.094,0,0,0-.114,1.775c.246.885.52,1.761.726,2.656.073.306.192.351.465.379,1.013.1,2.017.233,3.03.356,1.406.169,2.811.342,4.217.507,1.387.164,2.779.315,4.166.479C129.388,174.21,131.062,174.416,132.778,174.621Zm-.748,18.021c1.547,0,4.518,0,7.493,0,.333,0,.452-.023.356-.452q-1.376-6.126-2.665-12.271c-.137-.653-.488-.753-1.027-.812-1.479-.155-2.957-.333-4.431-.525a2.192,2.192,0,0,0-1.939.456c-1.082.945-2.268,1.775-3.441,2.61a22.185,22.185,0,0,1-6.809,3.715c-.306.087-.151.256-.1.42.584,2.172,1.182,4.344,1.734,6.526.1.392.228.52.639.516C124.76,192.774,127.681,192.861,132.03,192.642Zm.456-34.057c-.078-.365-.132-.648-.192-.931q-1.376-6.291-2.752-12.577c-.05-.224-.119-.411-.434-.47q-5.065-.9-10.126-1.834a1.006,1.006,0,0,0-1.013.315c-1.346,1.415-2.546,2.953-3.747,4.495a.585.585,0,0,0-.05.721,9.374,9.374,0,0,1,.543,1.419,32.7,32.7,0,0,1,1.022,6.507c.027.306.068.42.42.447,1.05.078,2.095.224,3.14.347q2.163.253,4.322.516c1.387.164,2.775.338,4.162.5C129.328,158.225,130.875,158.4,132.486,158.585Zm7.489,20.992c.917,4.221,1.83,8.41,2.738,12.6.073.338.237.434.589.424q6.126-.137,12.253-.219c.374,0,.4-.155.4-.447q-.007-3.094.018-6.183c.014-1.3.059-2.587.082-3.883,0-.178.1-.411-.237-.447-.99-.1-1.985-.214-2.975-.329-1.387-.16-2.775-.315-4.162-.479-1.406-.164-2.811-.338-4.217-.507C142.986,179.928,141.513,179.76,139.975,179.577Zm16.091-8.109h.114c0-1.844-.009-3.687.009-5.531,0-.383-.114-.5-.488-.52-.762-.046-1.52-.137-2.277-.233-2-.242-4-.5-6-.739a.8.8,0,0,0-.7.183q-4.087,3.642-8.191,7.26c-.123.11-.233.192-.183.406.224.931.424,1.862.621,2.8.041.192.114.278.315.3.995.1,1.985.214,2.98.329,1.351.155,2.706.306,4.057.47,1.711.205,3.423.42,5.134.625,1.406.169,2.816.306,4.221.5.329.046.4.009.4-.319C156.061,175.155,156.065,173.312,156.065,171.468Zm3.062-14.366h-.1c0,1.387.014,2.77-.009,4.157,0,.342.1.47.424.5,1.082.114,2.163.251,3.245.379,1.424.169,2.848.342,4.267.511q1.54.185,3.08.365c.265.032.429.018.511-.356.507-2.209,1.1-4.4,1.6-6.612a14.9,14.9,0,0,0,.58-2.8c.018-.5-.214-.666-.643-.744q-5.243-.972-10.487-1.953a.985.985,0,0,0-1.05.383c-.383.488-.771.972-1.182,1.433a.949.949,0,0,0-.246.685C159.132,154.405,159.127,155.752,159.127,157.1Zm-53.6,2.437c-5.38-.634-10.71-1.26-16.036-1.885-.009.059-.018.078-.014.091q2.362,6.058,4.732,12.12c.046.119.087.26.287.278.671.055,1.337.137,2,.214,1.442.169,2.884.333,4.322.525.329.046.479,0,.57-.351a57.042,57.042,0,0,1,2.131-6.334C104.143,162.633,104.85,161.1,105.526,159.539Zm12.951,33.372c-.657-2.437-1.31-4.837-1.939-7.238-.068-.256-.21-.2-.356-.205-.561-.046-1.132-.041-1.688-.141a37.378,37.378,0,0,1-8.862-2.747c-.315-.141-.411-.169-.529.233a9.133,9.133,0,0,1-3.5,5.179c-.205.141-.178.246-.1.438.58,1.456,1.159,2.911,1.711,4.376.1.278.251.292.488.287q7.057-.1,14.119-.178C118.029,192.911,118.23,192.911,118.476,192.911Zm-33.9-39.953c-.584-1.5-1.136-2.9-1.675-4.312a.429.429,0,0,0-.488-.306,6.95,6.95,0,0,1-1.789-.183,12.206,12.206,0,0,1-5.973-3.331,55.88,55.88,0,0,1-8.926-11.089,1.117,1.117,0,0,0-.762-.611,2.282,2.282,0,0,0-2.273.388,1.463,1.463,0,0,1-.516.3c-.306.114-.306.251-.141.516,3.5,5.732,7.155,11.367,10.82,16.994.087.132.146.278.351.3,1.264.137,2.524.288,3.788.434q2.108.246,4.217.5C82.3,152.7,83.4,152.822,84.579,152.959Zm74.429,18.8h-.114c0,1.825,0,3.651,0,5.476,0,.315.027.456.411.5,2.327.256,4.65.548,6.973.849.347.046.434-.123.5-.392q1.307-5.38,2.624-10.765c.059-.242.014-.374-.251-.4-.47-.05-.936-.11-1.406-.169-1.406-.169-2.811-.333-4.217-.5-1.369-.164-2.743-.319-4.112-.488-.288-.036-.411.023-.411.361C159.018,168.068,159.009,169.912,159.009,171.755ZM76.041,156.085a.248.248,0,0,0,.05.292c2.487,4.02,4.965,8.045,7.233,12.189a.463.463,0,0,0,.415.269c2.054.242,4.1.516,6.161.735a2.6,2.6,0,0,0,1.232.073c-.383-.986-.753-1.939-1.127-2.893q-1.78-4.525-3.559-9.045c-.082-.214-.119-.461-.429-.488-.7-.068-1.41-.146-2.113-.228-1.424-.169-2.848-.347-4.271-.511C78.428,156.345,77.223,156.212,76.041,156.085Zm132.366-38.83a27.031,27.031,0,0,0-.443-4.454.624.624,0,0,0-.726-.607,4.1,4.1,0,0,0-3.4,1.771c-3,4.39-5.773,8.94-9.058,13.133a1.121,1.121,0,0,0,.365,1.5.18.18,0,0,0,.146,0c.406-.31.8-.068,1.2.023.265.059.561.228.789.16a9.846,9.846,0,0,0,3.5-1.757c2.409-1.953,4.586-4.176,7.11-5.992a.542.542,0,0,0,.214-.411A19.735,19.735,0,0,0,208.407,117.255Zm-100.3.342a14.893,14.893,0,0,1-.128,1.6,10.612,10.612,0,0,1-2.542,5.686,1.359,1.359,0,0,1-.78.566.334.334,0,0,0-.283.283,13.8,13.8,0,0,1-.995,2.291c-.155.3-.046.351.237.388,1.515.187,3.03.37,4.541.589a24.391,24.391,0,0,0,7.128.059,1.832,1.832,0,0,0,1.2-.456,1.631,1.631,0,0,1,.748-.525c.4-.119.429-.388.365-.712a18.864,18.864,0,0,0-3.765-7.858c-.265.365-.383.821-.958.8a2.27,2.27,0,0,1-2.168-1.565.267.267,0,0,0-.141-.2A11.557,11.557,0,0,0,108.108,117.6Zm-40.76,37.461a.509.509,0,0,0,0,.119c1.825,4.075,3.664,8.146,5.563,12.189.068.146.128.242.3.256.342.027.685.068,1.027.11,1.387.164,2.775.333,4.162.5,1.15.137,2.3.265,3.455.4,0-.073.014-.114,0-.141q-3.669-6.291-7.594-12.417a.551.551,0,0,0-.438-.278Q70.586,155.432,67.348,155.058ZM169.737,235.83a5.328,5.328,0,1,0-5.326,5.33A5.332,5.332,0,0,0,169.737,235.83Zm-61.629.183a5.323,5.323,0,1,0-5.321,5.326A5.3,5.3,0,0,0,108.108,236.013ZM80.9,135.946c1.374,3.491,2.733,6.9,4.052,10.327.173.447.406.246.625.183a19.877,19.877,0,0,0,8.283-5.54,16.84,16.84,0,0,0,1.488-2.012c.164-.269.141-.374-.173-.415-.5-.068-1-.146-1.5-.233C89.444,137.493,85.218,136.727,80.9,135.946Zm1.25,10.957a.888.888,0,0,0-.009-.141q-2.177-5.551-4.349-11.107a.475.475,0,0,0-.379-.329c-.265-.055-.538-.078-.8-.128-2.186-.383-4.376-.776-6.562-1.159-.926-.164-1.853-.319-2.9-.5A66.807,66.807,0,0,0,74.832,143a14.614,14.614,0,0,0,4.134,3.089A8.242,8.242,0,0,0,82.147,146.9Zm33.463,37.288c.228-.018.607.233.456-.319q-.938-3.491-1.885-6.987c-.032-.123-.018-.292-.178-.379a.992.992,0,0,0-1.419.575.545.545,0,0,1-.557.406,2.736,2.736,0,0,1-1.1-.256,18.313,18.313,0,0,0-4.166-1c-.653-.046-1.41-.041-1.862-.726-.087-.132-.265-.1-.406-.11-.831-.1-1.657-.183-2.482-.3-.251-.036-.356-.009-.392.269a13.631,13.631,0,0,1-.356,1.981,1.161,1.161,0,0,0,.557,1.479c.11.068.2.155.31.224A36.047,36.047,0,0,0,115.611,184.191Zm-44.4-32.815c-1.214-1.876-2.409-3.7-3.578-5.54-2.66-4.189-5.412-8.324-7.808-12.677A1.764,1.764,0,0,0,58.171,132c-.538,0-.744.1-.794.634a1.243,1.243,0,0,0,.164.616c.748,1.7,1.492,3.4,2.25,5.088q2.9,6.51,5.814,13.024c.114.251.187.388.465.11a1.694,1.694,0,0,1,1.4-.488C68.69,151.092,69.913,151.234,71.213,151.375Zm35.5-14.918a1.724,1.724,0,0,0,.429.155,22.393,22.393,0,0,1,3.473.566c2.61.479,5.211.99,7.817,1.488a2.73,2.73,0,0,0,1.113.169c.388-.1.31-.653.5-.977.082-.141.137-.3.205-.447.461-.949.945-1.885,1.383-2.843.4-.867.164-1.26-.78-1.355a3.47,3.47,0,0,1-2.04-.949c-.443-.406-.862-.84-1.3-1.255a.855.855,0,0,0-.438-.224,4.019,4.019,0,0,0-2.907.643A60.56,60.56,0,0,0,106.712,136.457Zm72.417-10.56a62.274,62.274,0,0,1-6.183-4.427,25.614,25.614,0,0,0-4.312-2.546,5.415,5.415,0,0,0-1.6-.5,31.166,31.166,0,0,0-4.426-.073,4.369,4.369,0,0,0-2.163.643c-4.618,2.67-9.1,5.549-13.6,8.4-.561.356-1.113.716-1.72,1.109a.606.606,0,0,0,.488-.082c3.286-1.3,6.58-2.592,9.862-3.906a71.663,71.663,0,0,0,8.684-3.692,3.342,3.342,0,0,1,3.213-.146,40.328,40.328,0,0,1,5.458,3.076,6.528,6.528,0,0,0,3.039,1.378A20.43,20.43,0,0,1,179.129,125.9Zm-71.239,45.8c.37.155.5-.146.657-.516a31.865,31.865,0,0,0,1.844-5.905,3.486,3.486,0,0,0,.219-1.743c-.3-1.054-.6-2.113-.858-3.176a.439.439,0,0,0-.434-.392c-.648-.082-1.3-.151-1.944-.233a.524.524,0,0,0-.616.365,73.752,73.752,0,0,0-3.888,10.021c-.091.306-.333.653-.192.926.1.205.507.068.776.1C104.9,171.34,106.338,171.509,107.889,171.7Zm50.973,10.094a.538.538,0,0,0-.055.141q.021,5.011-.119,10.017c-.009.292.11.31.351.319,1.113.036,2.222-.146,3.336-.1a1.274,1.274,0,0,0,1.342-1.077q.883-3.731,1.757-7.47c.233-.99.224-.99-.794-1.118l-.11-.014C162.664,182.256,160.756,182.023,158.863,181.795Zm-61.282,4.267q-2.307-5.88-4.6-11.76c-.119-.3-.351-.31-.616-.338-1.46-.164-2.916-.347-4.376-.516-.721-.082-1.442-.151-2.245-.237C89.23,178,92.652,182.726,97.581,186.062Zm1.944-51.005c.561.119,1.082.233,1.606.338a5.978,5.978,0,0,0,1.748.3,5.031,5.031,0,0,1,1.739.324,1.589,1.589,0,0,0,1.483-.3c.575-.529,1.223-.981,1.848-1.451a51.885,51.885,0,0,1,5.234-3.637c-1.063-.059-2.117.018-3.162-.073-2.373-.21-4.732-.561-7.078-.967-.219-.037-.324-.018-.42.178C101.624,131.565,100.611,133.309,99.525,135.056Zm10.665,16.154a56.924,56.924,0,0,1,6.4-8.561c.055-.059.173-.114.11-.214-.078-.119-.224-.1-.347-.119q-2.608-.472-5.216-.949c-1.228-.219-2.46-.429-3.76-.657C108.318,144.229,109.24,147.665,110.189,151.211Zm6.872,25.674c.634,2.336,1.255,4.573,1.839,6.822.1.365.214.411.511.269.114-.055.242-.078.361-.123a25.15,25.15,0,0,0,5.645-3.272c1.031-.739,2.035-1.515,3.149-2.346C124.664,177.779,120.9,177.336,117.062,176.885Zm28.07-12.7c-3.021-.351-5.887-.689-8.775-1.027.516,2.336,1.027,4.623,1.51,6.909.082.4.183.356.424.141.475-.424.963-.835,1.437-1.26C141.494,167.406,143.251,165.85,145.131,164.189Zm-44.557,15.42c-.073.525-.164,1.036-.219,1.552-.2,1.83-.575,3.664.4,5.417.169.3.237.365.511.128a9.055,9.055,0,0,0,2.934-4.3c.1-.365.073-.52-.278-.7A24.337,24.337,0,0,1,100.574,179.609Zm-1.615,2.323c.087-.548.146-.99.233-1.424a22.018,22.018,0,0,1,1.1-5.084c.16-.356.018-.561-.415-.584-.561-.032-1.113-.128-1.675-.192-.712-.078-1.424-.151-2.186-.228C96.992,176.926,97.955,179.381,98.959,181.932Zm57.321-26.153-5.266,4.983c1.73.214,3.363.411,4.992.616.224.027.278-.068.274-.274C156.275,159.352,156.28,157.609,156.28,155.779Zm-43.133-6.64c-.657.872-1.383,1.652-.913,2.784a11.282,11.282,0,0,1,.543,3.2c.119,1.145.073,1.141,1.164,1.31.365.059.438-.078.4-.406-.119-1.045-.2-2.1-.342-3.14A21.1,21.1,0,0,0,113.146,149.139Zm96.224-29.178a8.357,8.357,0,0,1,1.784-.817c.306-.1.347-.26.324-.525a9.476,9.476,0,0,0-1-3.815,5.731,5.731,0,0,0-1.456-1.78A16.911,16.911,0,0,1,209.37,119.961ZM49.2,83.987A31.856,31.856,0,0,0,54.388,89.4c.018-.064.041-.1.032-.132A34.766,34.766,0,0,0,51.714,84c-.059-.1-.11-.183-.251-.114A3.129,3.129,0,0,1,49.2,83.987Zm63.742,88.265c-.484-1.793-.949-3.537-1.419-5.275a51.574,51.574,0,0,1-1.784,4.906C110.8,172.052,111.837,172.171,112.941,172.253Zm80.4-37a44.494,44.494,0,0,0-1.99,5.307c-.091.3-.05.5.37.351a3.406,3.406,0,0,0,2.122-2.391A4.329,4.329,0,0,0,193.339,135.257Zm-69.063.616a5.244,5.244,0,0,1-1.711-.237c-.21-.087-.246.087-.324.2a27.24,27.24,0,0,1-2.373,3.044,1.3,1.3,0,0,0,1.606-.178,7.626,7.626,0,0,1,.862-.57c.2-.137.484-.073.63-.288C123.387,137.215,123.807,136.581,124.277,135.873ZM94.131,65.889c-.461,1.333-.361,5.681.146,7.931A12.3,12.3,0,0,0,94.131,65.889Zm19.947,99.834a34.258,34.258,0,0,0,.342-3.961c.078-1.109.055-1.109-1.036-1.282-.11-.018-.21-.059-.319-.078-.287-.046-.434-.032-.324.356C113.2,162.368,113.612,163.984,114.077,165.723ZM82.959,124.269c-1.533,1.127-1.748,2.738-1.857,4.39C81.714,127.212,82.325,125.765,82.959,124.269ZM168.8,148.331c.009-.018.018-.036.027-.059-.63-.351-1.269-.685-1.88-1.059-.274-.164-.5-.027-.721.046-.146.05-.132.274-.1.392.064.242.31.214.516.251C167.364,148.044,168.081,148.19,168.8,148.331Zm-57.38,7.429a11.081,11.081,0,0,0-.351-3.409c-.37.548-.411.643-.333.936C110.956,154.113,111.193,154.939,111.421,155.761ZM73.381,130.087c1.168.534,1.3.461,1.31-.716v-.885A7.629,7.629,0,0,1,73.381,130.087ZM136.1,174.963c-.128-.269-.009-.575-.274-.767-.242.205-.475.4-.735.63A2.128,2.128,0,0,0,136.1,174.963Zm23.045-24.2c.2-.141.434-.315.712-.516-.3-.046-.5-.078-.712-.114ZM80.486,96.774a.98.98,0,0,0-.059.146.156.156,0,0,0,.091.037c.046,0,.119,0,.087-.073C80.591,96.847,80.541,96.824,80.486,96.774Z" fill="#090808"/>
      <path id="Path_68160" data-name="Path 68160" d="M166.379,180.127a3.823,3.823,0,0,1-.589,1.036c-.872,1.209-1.743,2.423-2.583,3.66a6.743,6.743,0,0,0-.493,1.145,61.36,61.36,0,0,0-15.525-11.418,2.186,2.186,0,0,0,1.232-.319,16.786,16.786,0,0,0,3.14-1.862,3.227,3.227,0,0,1,2.181-.534,11.75,11.75,0,0,1,6.334,2.4,15.942,15.942,0,0,1,4.239,4.518,6.192,6.192,0,0,0,.739.945c.324.324.552.237.735-.228A1.723,1.723,0,0,1,166.379,180.127Z" transform="translate(-66.453 -77.548)" fill="#b0060f"/>
      <path id="Path_68161" data-name="Path 68161" d="M181.1,47.36a10.11,10.11,0,0,0,1.524,1.15,5.373,5.373,0,0,0,1.73.424,14.417,14.417,0,0,1,4.089,1.447,2.706,2.706,0,0,1,.7.52.714.714,0,0,1-.479,1.237,3.045,3.045,0,0,1-1.342-.183,19.2,19.2,0,0,1-4.112-1.862,2.268,2.268,0,0,0-1.83-.3c2.25,1.469,4.413,3.1,7.151,3.683a1.81,1.81,0,0,1-1.3.251c-1.707-.114-3.4-.392-5.12-.415-.406,0-1.013.018-.963-.607s.634-.461,1.05-.438c.726.041,1.451.123,2.2.123-.575-.269-1.145-.534-1.72-.808a10.464,10.464,0,0,1-1.816-.995c-.995-.739-.967-1.314.119-1.912-.356-.319-.726-.611-1.054-.945a.962.962,0,0,1-.347-1.123.925.925,0,0,1,1.054-.507c.575.068,1.145.164,1.866.274-.516-.411-.917-.735-1.328-1.059a6.6,6.6,0,0,1-1.241-1.305,1.258,1.258,0,0,1-.256-1.465,1.358,1.358,0,0,1,1.387-.58,7.137,7.137,0,0,1,1.666.274c2.026.639,4.112,1.072,6.115,1.78a2.442,2.442,0,0,1,.8.434c-.607-.055-1.218-.11-1.967-.173.338.306.575.529.876.8a1.929,1.929,0,0,1-1-.164,30.83,30.83,0,0,0-4.709-1.492A10.742,10.742,0,0,0,181,43.02c-.128,0-.31-.082-.379.1-.05.137.078.233.146.338A8.1,8.1,0,0,0,182.321,45a15.137,15.137,0,0,0,5.654,3.076,4.843,4.843,0,0,1,.507.2.524.524,0,1,1-.351.986c-.557-.16-1.109-.351-1.647-.566a25.01,25.01,0,0,0-5.3-1.41c-.05-.073-.146-.091-.183-.041C180.943,47.3,181.066,47.31,181.1,47.36Z" transform="translate(-84.02 -6.944)" fill="#090808"/>
      <path id="Path_68162" data-name="Path 68162" d="M183.791,71.921a1.377,1.377,0,0,0,.447.47,5.969,5.969,0,0,1,.872.826c.242.3.361.63.055.926s-.625.169-.913-.1c-.438-.4-.967-.748-1.351-1.164a2.53,2.53,0,0,1-.776-1.83c.027-.42.812-1.086,1.3-1.177.242-.046.557.041.475-.438-.05-.287.237-.434.525-.424a4.171,4.171,0,0,1,1.707.516c.123.059.224.164.183.3-.078.265-.383.16-.566.31.251.173.666.237.557.671-.1.392-.461.351-.785.392.091.141.187.265.26.4a.463.463,0,0,1-.082.557.523.523,0,0,1-.639.173c-.383-.169-.758-.347-1.136-.525-.068-.073-.169-.123-.233-.055C183.645,71.821,183.736,71.88,183.791,71.921Z" transform="translate(-85.443 -21.648)" fill="#090808"/>
      <path id="Path_68163" data-name="Path 68163" d="M181.863,79.7a.582.582,0,0,1-.634-.6c-.023-.319.488-.967.776-.949.534.027.456.507.493.826A.607.607,0,0,1,181.863,79.7Z" transform="translate(-84.958 -26.617)" fill="#090808"/>
      <path id="Path_68164" data-name="Path 68164" d="M109.3,195.467a1.718,1.718,0,0,0-1.068.5c-1.41,1.273-2.8,2.565-4.221,3.815a4.4,4.4,0,0,0-1.465,2.893c-.315,2.469-.853,4.9-1.4,7.324-.05.228-.178.269-.361.333a8.678,8.678,0,0,0-1.456.456.609.609,0,0,1-.374.018q-2.67-.479-5.335-.967a1.286,1.286,0,0,1-.853-.511c-.881-1.159-1.775-2.309-2.61-3.5a12.248,12.248,0,0,1-1.378-2.022,55.009,55.009,0,0,1-3.331-8.8,32.5,32.5,0,0,1-1-6.179c-.224-4.034,1.652-7.4,5.75-8.661a9.508,9.508,0,0,1,6.361.438,19.506,19.506,0,0,1,10.081,8.419,27.505,27.505,0,0,1,1.3,3.29C108.36,193.349,108.753,194.408,109.3,195.467Z" transform="translate(-32.328 -81.881)" fill="#b0060f"/>
      <path id="Path_68165" data-name="Path 68165" d="M395.843,261.934a9.113,9.113,0,0,1-7.657-4.107,15.722,15.722,0,0,1-1.529-2.884,2.121,2.121,0,0,1-.041-1.834,18.913,18.913,0,0,0,.675-2.241c.087-.324.192-.5.575-.438a2.281,2.281,0,0,0,1.693-.488,4.876,4.876,0,0,0,1.949-5.759,14.881,14.881,0,0,0-.862-1.885.592.592,0,0,1-.059-.557q.726-1.67,1.442-3.354c.151-.351.329-.529.735-.306a3.936,3.936,0,0,0,.776.242.989.989,0,0,0,.849-.091c1.1-.789,2.524-.876,3.564-1.812,1-.9,2.076-1.725,3.076-2.633a49.351,49.351,0,0,1,5.147-4.153,16.424,16.424,0,0,1,1.962-1.177,2.792,2.792,0,0,1,2.419.237,5.593,5.593,0,0,1,2.145,1.743c.155.192.087.356.046.557a62.336,62.336,0,0,1-6.183,16.31c-2.3,4.468-4.746,8.853-7.251,13.211a2.661,2.661,0,0,1-2.373,1.419C396.573,261.961,396.208,261.934,395.843,261.934Zm2.907-8.894a3.676,3.676,0,1,0-3.637,3.7A3.7,3.7,0,0,0,398.749,253.039Z" transform="translate(-196.516 -108.226)" fill="#b0060f"/>
      <path id="Path_68166" data-name="Path 68166" d="M410.53,216.145a18.944,18.944,0,0,1-.31,3.368.542.542,0,0,1-.214.411c-2.524,1.816-4.7,4.043-7.11,5.992a9.772,9.772,0,0,1-3.5,1.757c-.228.068-.525-.1-.789-.16-.4-.091-.789-.333-1.2-.023a.18.18,0,0,1-.146,0,1.121,1.121,0,0,1-.365-1.5c3.286-4.194,6.06-8.743,9.058-13.133a4.1,4.1,0,0,1,3.4-1.771.619.619,0,0,1,.726.607A25.985,25.985,0,0,1,410.53,216.145Z" transform="translate(-202.122 -98.89)" fill="#b0060f"/>
      <path id="Path_68167" data-name="Path 68167" d="M329.531,475.665a5.326,5.326,0,1,1-5.326-5.326A5.326,5.326,0,0,1,329.531,475.665Z" transform="translate(-159.794 -239.835)" fill="#ddb429"/>
      <path id="Path_68168" data-name="Path 68168" d="M194.486,476.071a5.323,5.323,0,1,1-5.326-5.321A5.313,5.313,0,0,1,194.486,476.071Z" transform="translate(-86.378 -240.058)" fill="#ddb429"/>
      <path id="Path_68169" data-name="Path 68169" d="M145.6,183.892a6.031,6.031,0,0,1,.342,2.939,3.526,3.526,0,0,1-1.935,2.6,10.293,10.293,0,0,1-7.238.47c-.648-.173-1.269-.429-1.9-.648a16.4,16.4,0,0,0-1.419-2.629c.931.233,1.7.5,2.5.643a11.783,11.783,0,0,0,6.037-.269,3.524,3.524,0,0,0,1.789-1.287c.5-.707.365-1.177-.306-1.7a8.952,8.952,0,0,1-1.091-1.214,6.781,6.781,0,0,0-1.7-1.524,2.034,2.034,0,0,0-.862-.315c-.2-.014-.42-.05-.443.251l-.543-.214a3.522,3.522,0,0,1-.228-1.314A45.142,45.142,0,0,1,145.6,183.892Z" transform="translate(-58.983 -81.815)" fill="#b0060f"/>
      <path id="Path_68170" data-name="Path 68170" d="M416.879,265.312c.826-1.328,1.693-2.633,2.469-3.988a133.927,133.927,0,0,0,8.634-17.026,40.393,40.393,0,0,0,2.095-7.041c.046-.228.068-.461.114-.767.329.292.342.7.57.945.789.872.511,1.834.3,2.806a32.752,32.752,0,0,1-3.258,8.127c-2.752,5.221-5.777,10.286-8.584,15.475a1.947,1.947,0,0,1-.954.767,4.294,4.294,0,0,1-1.392.7A.016.016,0,0,1,416.879,265.312Z" transform="translate(-213.067 -112.701)" fill="#b0060f"/>
      <path id="Path_68171" data-name="Path 68171" d="M428.646,219.836a16.834,16.834,0,0,0-.356-6.936,5.68,5.68,0,0,1,1.456,1.78,9.331,9.331,0,0,1,1,3.815c.023.26-.018.424-.324.525A8.328,8.328,0,0,0,428.646,219.836Z" transform="translate(-219.276 -99.876)" fill="#b0060f"/>
      <path id="Path_68172" data-name="Path 68172" d="M149.847,237.54c-.634,1.5-1.246,2.943-1.857,4.39" transform="translate(-66.888 -113.271)" fill="#fcfcfc"/>
      <path id="Path_68173" data-name="Path 68173" d="M146.569,177.29c.055.05.1.073.119.114.027.078-.041.078-.087.073a.194.194,0,0,1-.091-.037A.842.842,0,0,1,146.569,177.29Z" transform="translate(-66.083 -80.516)" fill="#e52026"/>
      <path id="Path_68174" data-name="Path 68174" d="M190.578,192.552c-.059.073-.091.192-.228.141.041-.073.087-.151.128-.224C190.51,192.5,190.542,192.525,190.578,192.552Z" transform="translate(-89.917 -88.769)" fill="#fcfcfc"/>
      <path id="Path_68175" data-name="Path 68175" d="M172.27,87.514c.087,0,.132.1.1.128-.073.055-.018-.041-.037-.059s-.027-.055-.046-.082Z" transform="translate(-80.088 -31.701)" fill="#fcfcfc"/>
      <path id="Path_68176" data-name="Path 68176" d="M416.864,299.64l-.014.036.018-.032Z" transform="translate(-213.056 -147.033)" fill="#e52026"/>
      <path id="Path_68177" data-name="Path 68177" d="M182.867,53.6c-.032-.046-.155-.059-.1-.137.036-.046.132-.027.183.041C182.926,53.533,182.894,53.565,182.867,53.6Z" transform="translate(-85.788 -13.181)" fill="#fff"/>
      <path id="Path_68178" data-name="Path 68178" d="M185.648,75.166c-.059-.041-.151-.1-.091-.155s.169-.018.233.055Z" transform="translate(-87.301 -24.894)" fill="#fff"/>
      <path id="Path_68179" data-name="Path 68179" d="M72.421,125.964a2.291,2.291,0,0,1,.4-1.529,1.036,1.036,0,0,1,1.62-.187,6.006,6.006,0,0,1,1.734,2.852c.082.37.233.858-.461.858-.041,0-.087.064-.123.1-.242.283-.8.42-.707.812.073.292.607.16.935.228,1.333.287,1.976,1.319,1.474,2.423a1.4,1.4,0,0,1-1.264.89,2.524,2.524,0,0,1-1.9-.666,1.214,1.214,0,0,1-.37-1.383c.073-.164.155-.37.356-.379.228-.009.278.224.324.383a1.42,1.42,0,0,0,1.364,1.05.534.534,0,0,0,.643-.443.614.614,0,0,0-.392-.748,3.864,3.864,0,0,0-1.063-.214,1.226,1.226,0,0,1-1.123-.817,1.3,1.3,0,0,1,.452-1.328,1.349,1.349,0,0,1,.379-.31c.516-.233.516-.529.192-.945s-.6-.867-.9-1.3c-.068-.1-.146-.256-.287-.2-.11.041-.151.187-.178.315-.068.374-.146.748-.214,1.127-.055.315-.173.6-.548.548s-.4-.37-.383-.68C72.38,126.279,72.4,126.132,72.421,125.964Z" transform="translate(-25.777 -51.509)" fill="#090808"/>
      <path id="Path_68180" data-name="Path 68180" d="M143.634,143.882a2.119,2.119,0,0,1-1.319.192c-1.237-.068-2.473-.183-3.71-.246a11.7,11.7,0,0,0-5.887,1.342c-.712.356-1.442.68-2.177,1-.315.137-.675.2-.853-.192-.183-.415.151-.584.461-.721a40.289,40.289,0,0,1,4.367-1.967,12.974,12.974,0,0,1,7.06-.064A7.556,7.556,0,0,1,143.634,143.882Z" transform="translate(-56.91 -61.747)" fill="#090808"/>
      <path id="Path_68181" data-name="Path 68181" d="M108.961,92.634a3.445,3.445,0,0,1-.63,1.939,9.435,9.435,0,0,1-5.777,4.18c-.383.1-.9.3-1.05-.3-.137-.566.406-.6.771-.712a8.878,8.878,0,0,0,4.933-3.486c.411-.584.945-1.2.456-2.031a.4.4,0,0,1,.155-.488.508.508,0,0,1,.611-.059A.966.966,0,0,1,108.961,92.634Z" transform="translate(-41.604 -33.932)" fill="#090808"/>
      <path id="Path_68182" data-name="Path 68182" d="M149.15,97.935a1.637,1.637,0,0,1-1.542-1.424c-.018-.2-.036-.429.16-.548.224-.137.361.087.5.21.123.1.224.237.338.356.529.534.99.47,1.31-.205.671-1.428,1.209-2.907,1.752-4.385a3.52,3.52,0,0,1,.292-.639.456.456,0,0,1,.616-.2.42.42,0,0,1,.214.552,32.174,32.174,0,0,1-2.108,5.522A1.588,1.588,0,0,1,149.15,97.935Z" transform="translate(-66.674 -33.629)" fill="#090808"/>
      <path id="Path_68183" data-name="Path 68183" d="M111.384,115.374a5.319,5.319,0,0,1-.055.561.732.732,0,0,1-1.282.47,4.557,4.557,0,0,1-1.214-2.492,3.157,3.157,0,0,1-.123-1.077.84.84,0,0,1,.538-.812.758.758,0,0,1,.867.3A5.107,5.107,0,0,1,111.384,115.374Z" transform="translate(-45.528 -45.009)" fill="#090808"/>
      <path id="Path_68184" data-name="Path 68184" d="M159.266,108.174a1.915,1.915,0,0,1-.114.808.708.708,0,0,1-.593.493.676.676,0,0,1-.675-.365,4.743,4.743,0,0,1-.557-1.8,15.945,15.945,0,0,1-.151-1.62.6.6,0,0,1,.456-.707.791.791,0,0,1,.977.383A5.88,5.88,0,0,1,159.266,108.174Z" transform="translate(-71.88 -41.185)" fill="#090808"/>
      <path id="Path_68185" data-name="Path 68185" d="M149.524,125.229a1.036,1.036,0,0,1-.151.6,6.718,6.718,0,0,1-1.305,1.606c-.183.169-.424.351-.68.123a.5.5,0,0,1,0-.7c.265-.392.557-.767.858-1.132a.618.618,0,0,0-.068-1.018c-.269-.214-.511-.47-.762-.707a1.655,1.655,0,0,1-.461-.666c-.1-.292-.155-.6.169-.771s.447.119.6.324a9,9,0,0,0,1.068,1.018A1.732,1.732,0,0,1,149.524,125.229Z" transform="translate(-66.286 -50.738)" fill="#090808"/>
      <path id="Path_68186" data-name="Path 68186" d="M126.083,151.5a1.972,1.972,0,0,1-1.6-.862.544.544,0,0,1,.037-.826c.278-.228.507-.055.7.164a4.262,4.262,0,0,0,1.022.707c.21.128.525.242.447.543C126.6,151.555,126.242,151.45,126.083,151.5Z" transform="translate(-54.016 -65.519)" fill="#090808"/>
      <path id="Path_68187" data-name="Path 68187" d="M404.672,278.211a3.676,3.676,0,1,1-3.687-3.651A3.7,3.7,0,0,1,404.672,278.211Z" transform="translate(-202.438 -133.398)" fill="#ddb429"/>
      <path id="Path_68188" data-name="Path 68188" d="M154.387,220.488c-.055.233.059.475-.183.534-.21.055-.224-.2-.315-.315a1.944,1.944,0,0,0-1.547-.981.446.446,0,0,1-.1-.027c-.685-.256-1.009-.671-.84-1.077.16-.388.589-.429,1.3-.078A2.975,2.975,0,0,1,154.387,220.488Z" transform="translate(-68.716 -102.813)" fill="#090808"/>
      <path id="Path_68189" data-name="Path 68189" d="M176.144,231.449a.755.755,0,0,1-.812.707c-.6-.032-1.091-.4-1.054-.821a.591.591,0,0,1,.666-.575C175.8,230.76,176.158,230.965,176.144,231.449Z" transform="translate(-81.178 -109.585)" fill="#090808"/>
      <path id="Path_68190" data-name="Path 68190" d="M164.531,224.926c-.032.068-.068.055-.1,0a.056.056,0,0,1,0-.046c.055-.027.087-.009.1.05Z" transform="translate(-75.822 -106.385)" fill="#090808"/>
      <path id="Path_68191" data-name="Path 68191" d="M173.841,288.664c-.078.055-.119.169-.251.137a.27.27,0,0,1,.187-.2A.422.422,0,0,0,173.841,288.664Z" transform="translate(-80.806 -141.031)" fill="#090808"/>
      <path id="Path_68192" data-name="Path 68192" d="M174,288.453a.109.109,0,0,1,.1-.123c.023.032.05.064.073.091-.037.032-.068.064-.1.091A.262.262,0,0,1,174,288.453Z" transform="translate(-81.028 -140.884)" fill="#090808"/>
    </g>
  </g>
</svg>
